<mxfile host="Electron" modified="2024-03-15T14:17:13.956Z" agent="Mozilla/5.0 (Windows NT 10.0; Win64; x64) AppleWebKit/537.36 (KHTML, like Gecko) draw.io/24.0.4 Chrome/120.0.6099.109 Electron/28.1.0 Safari/537.36" etag="JOXXItOFvQXjeAGmy3os" version="24.0.4" type="device">
  <diagram name="Página-1" id="mW1c-jfrzAoP3f8UfTN4">
    <mxGraphModel dx="1304" dy="731" grid="1" gridSize="10" guides="1" tooltips="1" connect="1" arrows="1" fold="1" page="1" pageScale="1" pageWidth="827" pageHeight="1169" math="0" shadow="0">
      <root>
        <mxCell id="0" />
        <mxCell id="1" parent="0" />
        <mxCell id="0-qJwLGh9Vtd-sUoXHen-1" value="Producto" style="swimlane;fontStyle=1;align=center;verticalAlign=top;childLayout=stackLayout;horizontal=1;startSize=26;horizontalStack=0;resizeParent=1;resizeParentMax=0;resizeLast=0;collapsible=1;marginBottom=0;whiteSpace=wrap;html=1;" parent="1" vertex="1">
          <mxGeometry x="199" y="130" width="160" height="138" as="geometry" />
        </mxCell>
        <mxCell id="0-qJwLGh9Vtd-sUoXHen-2" value="- codigo: entero" style="text;strokeColor=none;fillColor=none;align=left;verticalAlign=top;spacingLeft=4;spacingRight=4;overflow=hidden;rotatable=0;points=[[0,0.5],[1,0.5]];portConstraint=eastwest;whiteSpace=wrap;html=1;" parent="0-qJwLGh9Vtd-sUoXHen-1" vertex="1">
          <mxGeometry y="26" width="160" height="26" as="geometry" />
        </mxCell>
        <mxCell id="0-qJwLGh9Vtd-sUoXHen-5" value="- descripcion: cadena" style="text;strokeColor=none;fillColor=none;align=left;verticalAlign=top;spacingLeft=4;spacingRight=4;overflow=hidden;rotatable=0;points=[[0,0.5],[1,0.5]];portConstraint=eastwest;whiteSpace=wrap;html=1;" parent="0-qJwLGh9Vtd-sUoXHen-1" vertex="1">
          <mxGeometry y="52" width="160" height="26" as="geometry" />
        </mxCell>
        <mxCell id="0-qJwLGh9Vtd-sUoXHen-6" value="- precio: real" style="text;strokeColor=none;fillColor=none;align=left;verticalAlign=top;spacingLeft=4;spacingRight=4;overflow=hidden;rotatable=0;points=[[0,0.5],[1,0.5]];portConstraint=eastwest;whiteSpace=wrap;html=1;" parent="0-qJwLGh9Vtd-sUoXHen-1" vertex="1">
          <mxGeometry y="78" width="160" height="26" as="geometry" />
        </mxCell>
        <mxCell id="0-qJwLGh9Vtd-sUoXHen-3" value="" style="line;strokeWidth=1;fillColor=none;align=left;verticalAlign=middle;spacingTop=-1;spacingLeft=3;spacingRight=3;rotatable=0;labelPosition=right;points=[];portConstraint=eastwest;strokeColor=inherit;" parent="0-qJwLGh9Vtd-sUoXHen-1" vertex="1">
          <mxGeometry y="104" width="160" height="8" as="geometry" />
        </mxCell>
        <mxCell id="0-qJwLGh9Vtd-sUoXHen-4" value="+ actualizarPrecios(precio)" style="text;strokeColor=none;fillColor=none;align=left;verticalAlign=top;spacingLeft=4;spacingRight=4;overflow=hidden;rotatable=0;points=[[0,0.5],[1,0.5]];portConstraint=eastwest;whiteSpace=wrap;html=1;" parent="0-qJwLGh9Vtd-sUoXHen-1" vertex="1">
          <mxGeometry y="112" width="160" height="26" as="geometry" />
        </mxCell>
        <mxCell id="0-qJwLGh9Vtd-sUoXHen-11" value="Cliente" style="swimlane;fontStyle=1;align=center;verticalAlign=top;childLayout=stackLayout;horizontal=1;startSize=26;horizontalStack=0;resizeParent=1;resizeParentMax=0;resizeLast=0;collapsible=1;marginBottom=0;whiteSpace=wrap;html=1;" parent="1" vertex="1">
          <mxGeometry x="469" y="130" width="160" height="242" as="geometry" />
        </mxCell>
        <mxCell id="0-qJwLGh9Vtd-sUoXHen-12" value="- dni: entero" style="text;strokeColor=none;fillColor=none;align=left;verticalAlign=top;spacingLeft=4;spacingRight=4;overflow=hidden;rotatable=0;points=[[0,0.5],[1,0.5]];portConstraint=eastwest;whiteSpace=wrap;html=1;" parent="0-qJwLGh9Vtd-sUoXHen-11" vertex="1">
          <mxGeometry y="26" width="160" height="26" as="geometry" />
        </mxCell>
        <mxCell id="0-qJwLGh9Vtd-sUoXHen-13" value="- nombre: cadena" style="text;strokeColor=none;fillColor=none;align=left;verticalAlign=top;spacingLeft=4;spacingRight=4;overflow=hidden;rotatable=0;points=[[0,0.5],[1,0.5]];portConstraint=eastwest;whiteSpace=wrap;html=1;" parent="0-qJwLGh9Vtd-sUoXHen-11" vertex="1">
          <mxGeometry y="52" width="160" height="26" as="geometry" />
        </mxCell>
        <mxCell id="0-qJwLGh9Vtd-sUoXHen-17" value="- apellido: cadena" style="text;strokeColor=none;fillColor=none;align=left;verticalAlign=top;spacingLeft=4;spacingRight=4;overflow=hidden;rotatable=0;points=[[0,0.5],[1,0.5]];portConstraint=eastwest;whiteSpace=wrap;html=1;" parent="0-qJwLGh9Vtd-sUoXHen-11" vertex="1">
          <mxGeometry y="78" width="160" height="26" as="geometry" />
        </mxCell>
        <mxCell id="0-qJwLGh9Vtd-sUoXHen-14" value="- direccion: cadena" style="text;strokeColor=none;fillColor=none;align=left;verticalAlign=top;spacingLeft=4;spacingRight=4;overflow=hidden;rotatable=0;points=[[0,0.5],[1,0.5]];portConstraint=eastwest;whiteSpace=wrap;html=1;" parent="0-qJwLGh9Vtd-sUoXHen-11" vertex="1">
          <mxGeometry y="104" width="160" height="26" as="geometry" />
        </mxCell>
        <mxCell id="0-qJwLGh9Vtd-sUoXHen-18" value="- correo: cadena" style="text;strokeColor=none;fillColor=none;align=left;verticalAlign=top;spacingLeft=4;spacingRight=4;overflow=hidden;rotatable=0;points=[[0,0.5],[1,0.5]];portConstraint=eastwest;whiteSpace=wrap;html=1;" parent="0-qJwLGh9Vtd-sUoXHen-11" vertex="1">
          <mxGeometry y="130" width="160" height="26" as="geometry" />
        </mxCell>
        <mxCell id="0-qJwLGh9Vtd-sUoXHen-19" value="- telefono: entero" style="text;strokeColor=none;fillColor=none;align=left;verticalAlign=top;spacingLeft=4;spacingRight=4;overflow=hidden;rotatable=0;points=[[0,0.5],[1,0.5]];portConstraint=eastwest;whiteSpace=wrap;html=1;" parent="0-qJwLGh9Vtd-sUoXHen-11" vertex="1">
          <mxGeometry y="156" width="160" height="26" as="geometry" />
        </mxCell>
        <mxCell id="0-qJwLGh9Vtd-sUoXHen-15" value="" style="line;strokeWidth=1;fillColor=none;align=left;verticalAlign=middle;spacingTop=-1;spacingLeft=3;spacingRight=3;rotatable=0;labelPosition=right;points=[];portConstraint=eastwest;strokeColor=inherit;" parent="0-qJwLGh9Vtd-sUoXHen-11" vertex="1">
          <mxGeometry y="182" width="160" height="8" as="geometry" />
        </mxCell>
        <mxCell id="0-qJwLGh9Vtd-sUoXHen-16" value="+ verificarCorreo(correo)" style="text;strokeColor=none;fillColor=none;align=left;verticalAlign=top;spacingLeft=4;spacingRight=4;overflow=hidden;rotatable=0;points=[[0,0.5],[1,0.5]];portConstraint=eastwest;whiteSpace=wrap;html=1;" parent="0-qJwLGh9Vtd-sUoXHen-11" vertex="1">
          <mxGeometry y="190" width="160" height="26" as="geometry" />
        </mxCell>
        <mxCell id="0-qJwLGh9Vtd-sUoXHen-20" value="+ verificarTelefono(telefono)" style="text;strokeColor=none;fillColor=none;align=left;verticalAlign=top;spacingLeft=4;spacingRight=4;overflow=hidden;rotatable=0;points=[[0,0.5],[1,0.5]];portConstraint=eastwest;whiteSpace=wrap;html=1;" parent="0-qJwLGh9Vtd-sUoXHen-11" vertex="1">
          <mxGeometry y="216" width="160" height="26" as="geometry" />
        </mxCell>
        <mxCell id="3sm0TTxIIHVJczV8cH9r-1" value="&lt;p style=&quot;margin:0px;margin-top:4px;text-align:center;text-decoration:underline;&quot;&gt;&lt;b&gt;Producto1&lt;/b&gt;&lt;/p&gt;&lt;hr size=&quot;1&quot; style=&quot;border-style:solid;&quot;&gt;&lt;p style=&quot;margin:0px;margin-left:8px;&quot;&gt;546732&lt;br&gt;Teclado Corsair&lt;br&gt;54600&lt;/p&gt;" style="verticalAlign=top;align=left;overflow=fill;html=1;whiteSpace=wrap;" vertex="1" parent="1">
          <mxGeometry x="10" y="520" width="160" height="90" as="geometry" />
        </mxCell>
        <mxCell id="3sm0TTxIIHVJczV8cH9r-2" value="&lt;p style=&quot;margin:0px;margin-top:4px;text-align:center;text-decoration:underline;&quot;&gt;&lt;b&gt;Producto2&lt;/b&gt;&lt;/p&gt;&lt;hr size=&quot;1&quot; style=&quot;border-style:solid;&quot;&gt;&lt;p style=&quot;margin:0px;margin-left:8px;&quot;&gt;959453&lt;br&gt;Pendrive 32 GB&lt;br&gt;7500&lt;/p&gt;" style="verticalAlign=top;align=left;overflow=fill;html=1;whiteSpace=wrap;" vertex="1" parent="1">
          <mxGeometry x="190" y="520" width="160" height="90" as="geometry" />
        </mxCell>
        <mxCell id="3sm0TTxIIHVJczV8cH9r-3" value="&lt;p style=&quot;margin:0px;margin-top:4px;text-align:center;text-decoration:underline;&quot;&gt;&lt;b&gt;Cliente1&lt;/b&gt;&lt;/p&gt;&lt;hr size=&quot;1&quot; style=&quot;border-style:solid;&quot;&gt;&lt;p style=&quot;margin:0px;margin-left:8px;&quot;&gt;44479170&lt;br&gt;Jose Ignacio&lt;br&gt;Nehín Orosco&lt;/p&gt;&lt;p style=&quot;margin:0px;margin-left:8px;&quot;&gt;Av Bellas Artes 211&lt;/p&gt;&lt;p style=&quot;margin:0px;margin-left:8px;&quot;&gt;nehinturco@gmail.com&lt;/p&gt;&lt;p style=&quot;margin:0px;margin-left:8px;&quot;&gt;2642223536&lt;/p&gt;" style="verticalAlign=top;align=left;overflow=fill;html=1;whiteSpace=wrap;" vertex="1" parent="1">
          <mxGeometry x="440" y="520" width="160" height="130" as="geometry" />
        </mxCell>
        <mxCell id="3sm0TTxIIHVJczV8cH9r-4" value="&lt;p style=&quot;margin:0px;margin-top:4px;text-align:center;text-decoration:underline;&quot;&gt;&lt;b&gt;Cliente2&lt;/b&gt;&lt;/p&gt;&lt;hr size=&quot;1&quot; style=&quot;border-style:solid;&quot;&gt;&lt;p style=&quot;margin:0px;margin-left:8px;&quot;&gt;44431847&lt;br&gt;Juan Marcos&lt;br&gt;Quiroga&lt;/p&gt;&lt;p style=&quot;margin:0px;margin-left:8px;&quot;&gt;Ameghino Norte 229&lt;/p&gt;&lt;p style=&quot;margin:0px;margin-left:8px;&quot;&gt;quirogajuanmarcos@gmail.com&lt;/p&gt;&lt;p style=&quot;margin:0px;margin-left:8px;&quot;&gt;2645880918&lt;/p&gt;" style="verticalAlign=top;align=left;overflow=fill;html=1;whiteSpace=wrap;" vertex="1" parent="1">
          <mxGeometry x="610" y="520" width="190" height="130" as="geometry" />
        </mxCell>
        <mxCell id="3sm0TTxIIHVJczV8cH9r-5" style="edgeStyle=orthogonalEdgeStyle;rounded=0;orthogonalLoop=1;jettySize=auto;html=1;exitX=0;exitY=0.5;exitDx=0;exitDy=0;entryX=0.5;entryY=0;entryDx=0;entryDy=0;dashed=1;" edge="1" parent="1" source="0-qJwLGh9Vtd-sUoXHen-5" target="3sm0TTxIIHVJczV8cH9r-1">
          <mxGeometry relative="1" as="geometry" />
        </mxCell>
        <mxCell id="3sm0TTxIIHVJczV8cH9r-6" style="edgeStyle=orthogonalEdgeStyle;rounded=0;orthogonalLoop=1;jettySize=auto;html=1;exitX=0.45;exitY=1.029;exitDx=0;exitDy=0;entryX=0.5;entryY=0;entryDx=0;entryDy=0;exitPerimeter=0;dashed=1;" edge="1" parent="1" source="0-qJwLGh9Vtd-sUoXHen-4" target="3sm0TTxIIHVJczV8cH9r-2">
          <mxGeometry relative="1" as="geometry" />
        </mxCell>
        <mxCell id="3sm0TTxIIHVJczV8cH9r-7" style="edgeStyle=orthogonalEdgeStyle;rounded=0;orthogonalLoop=1;jettySize=auto;html=1;exitX=0.321;exitY=0.975;exitDx=0;exitDy=0;entryX=0.5;entryY=0;entryDx=0;entryDy=0;exitPerimeter=0;dashed=1;" edge="1" parent="1" source="0-qJwLGh9Vtd-sUoXHen-20" target="3sm0TTxIIHVJczV8cH9r-3">
          <mxGeometry relative="1" as="geometry" />
        </mxCell>
        <mxCell id="3sm0TTxIIHVJczV8cH9r-8" style="edgeStyle=orthogonalEdgeStyle;rounded=0;orthogonalLoop=1;jettySize=auto;html=1;exitX=1;exitY=0.5;exitDx=0;exitDy=0;entryX=0.5;entryY=0;entryDx=0;entryDy=0;dashed=1;" edge="1" parent="1" source="0-qJwLGh9Vtd-sUoXHen-14" target="3sm0TTxIIHVJczV8cH9r-4">
          <mxGeometry relative="1" as="geometry" />
        </mxCell>
      </root>
    </mxGraphModel>
  </diagram>
</mxfile>
